<svg width="77" height="82" viewBox="0 0 77 82" fill="none" xmlns="http://www.w3.org/2000/svg">
<circle cx="15.6634" cy="2.16371" r="1.66343" transform="rotate(-90 15.6634 2.16371)" fill="#3758F9"/>
<circle cx="29.9903" cy="2.16371" r="1.66343" transform="rotate(-90 29.9903 2.16371)" fill="#3758F9"/>
<circle cx="44.3172" cy="2.16371" r="1.66343" transform="rotate(-90 44.3172 2.16371)" fill="#3758F9"/>
<circle cx="58.6441" cy="2.16371" r="1.66343" transform="rotate(-90 58.6441 2.16371)" fill="#3758F9"/>
<circle cx="15.6634" cy="16.4899" r="1.66343" transform="rotate(-90 15.6634 16.4899)" fill="#3758F9"/>
<circle cx="29.9903" cy="16.4899" r="1.66343" transform="rotate(-90 29.9903 16.4899)" fill="#3758F9"/>
<circle cx="44.3172" cy="16.4899" r="1.66343" transform="rotate(-90 44.3172 16.4899)" fill="#3758F9"/>
<circle cx="58.6441" cy="16.4899" r="1.66343" transform="rotate(-90 58.6441 16.4899)" fill="#3758F9"/>
<circle cx="15.6634" cy="30.817" r="1.66343" transform="rotate(-90 15.6634 30.817)" fill="#3758F9"/>
<circle cx="29.9903" cy="30.817" r="1.66343" transform="rotate(-90 29.9903 30.817)" fill="#3758F9"/>
<circle cx="44.3172" cy="30.817" r="1.66343" transform="rotate(-90 44.3172 30.817)" fill="#3758F9"/>
<circle cx="58.6441" cy="30.817" r="1.66343" transform="rotate(-90 58.6441 30.817)" fill="#3758F9"/>
<circle cx="15.6634" cy="45.1442" r="1.66343" transform="rotate(-90 15.6634 45.1442)" fill="#3758F9"/>
<circle cx="29.9903" cy="45.1442" r="1.66343" transform="rotate(-90 29.9903 45.1442)" fill="#3758F9"/>
<circle cx="44.3172" cy="45.1442" r="1.66343" transform="rotate(-90 44.3172 45.1442)" fill="#3758F9"/>
<circle cx="58.6441" cy="45.1442" r="1.66343" transform="rotate(-90 58.6441 45.1442)" fill="#3758F9"/>
<circle cx="15.6634" cy="59.4713" r="1.66343" transform="rotate(-90 15.6634 59.4713)" fill="#3758F9"/>
<circle cx="29.9903" cy="59.4713" r="1.66343" transform="rotate(-90 29.9903 59.4713)" fill="#3758F9"/>
<circle cx="44.3172" cy="59.4713" r="1.66343" transform="rotate(-90 44.3172 59.4713)" fill="#3758F9"/>
<circle cx="58.6441" cy="59.4713" r="1.66343" transform="rotate(-90 58.6441 59.4713)" fill="#3758F9"/>
<circle cx="15.6634" cy="73.7975" r="1.66343" transform="rotate(-90 15.6634 73.7975)" fill="#3758F9"/>
<circle cx="1.66343" cy="80.0221" r="1.66343" transform="rotate(-90 1.66343 80.0221)" fill="#3758F9"/>
<circle cx="1.66343" cy="36.4401" r="1.66343" transform="rotate(-90 1.66343 36.4401)" fill="#3758F9"/>
<circle cx="16.3016" cy="80.0221" r="1.66343" transform="rotate(-90 16.3016 80.0221)" fill="#3758F9"/>
<circle cx="30.9398" cy="80.0221" r="1.66343" transform="rotate(-90 30.9398 80.0221)" fill="#3758F9"/>
<circle cx="45.578" cy="80.0221" r="1.66343" transform="rotate(-90 45.578 80.0221)" fill="#3758F9"/>
<circle cx="74.6634" cy="80.0211" r="1.66343" transform="rotate(-90 74.6634 80.0211)" fill="#3758F9"/>
<circle cx="74.6634" cy="36.4401" r="1.66343" transform="rotate(-90 74.6634 36.4401)" fill="#3758F9"/>
<circle cx="1.66343" cy="65.3834" r="1.66343" transform="rotate(-90 1.66343 65.3834)" fill="#3758F9"/>
<circle cx="1.66343" cy="21.8014" r="1.66343" transform="rotate(-90 1.66343 21.8014)" fill="#3758F9"/>
<circle cx="74.6634" cy="65.3834" r="1.66343" transform="rotate(-90 74.6634 65.3834)" fill="#3758F9"/>
<circle cx="74.6634" cy="21.8014" r="1.66343" transform="rotate(-90 74.6634 21.8014)" fill="#3758F9"/>
<circle cx="1.66343" cy="50.7457" r="1.66343" transform="rotate(-90 1.66343 50.7457)" fill="#3758F9"/>
<circle cx="1.66343" cy="7.16371" r="1.66343" transform="rotate(-90 1.66343 7.16371)" fill="#3758F9"/>
<circle cx="74.6634" cy="50.7457" r="1.66343" transform="rotate(-90 74.6634 50.7457)" fill="#3758F9"/>
<circle cx="74.6634" cy="7.16371" r="1.66343" transform="rotate(-90 74.6634 7.16371)" fill="#3758F9"/>
</svg>
