<svg width="60" height="50" viewBox="0 0 60 50" fill="none" xmlns="http://www.w3.org/2000/svg">
<rect x="12.5" y="4.5" width="43" height="43" rx="21.5" stroke="#45B369" stroke-width="3"/>
<path d="M6.26887 35.8259C5.7286 35.6945 5.07709 35.457 4.5528 35.0403C4.13608 34.521 3.8976 33.8704 3.76668 33.3309C3.75807 33.2941 3.73779 33.261 3.70829 33.237C3.67817 33.2137 3.64191 33.2002 3.6038 33.2002H3.59581C3.5577 33.1996 3.52082 33.2125 3.49071 33.2364C3.4612 33.2604 3.44031 33.2935 3.43293 33.3309C3.29833 33.8704 3.06353 34.521 2.64681 35.044C2.12252 35.4607 1.47101 35.6945 0.930744 35.8296C0.893251 35.8382 0.859445 35.8596 0.836089 35.8897C0.812118 35.9198 0.799211 35.9578 0.799826 35.9959V36.0039C0.799826 36.0425 0.812733 36.08 0.836704 36.1101C0.86006 36.1401 0.893251 36.1616 0.930744 36.1708C1.47101 36.3016 2.12252 36.5397 2.64681 36.9558C3.06353 37.4794 3.29833 38.1299 3.43293 38.6694C3.44154 38.7063 3.46182 38.7394 3.49132 38.7634C3.52144 38.7873 3.5577 38.7996 3.59581 38.8002H3.6038C3.64191 38.8008 3.67879 38.7879 3.7089 38.764C3.7384 38.74 3.7593 38.7069 3.76668 38.6694C3.90128 38.1299 4.13608 37.4794 4.5528 36.9558C5.07709 36.5397 5.7286 36.3052 6.26887 36.1708C6.30636 36.1622 6.34016 36.1407 6.36352 36.1107C6.38749 36.08 6.4004 36.0425 6.39978 36.0039V35.9959C6.39917 35.9572 6.38626 35.9198 6.36229 35.8891C6.33894 35.8584 6.30575 35.8363 6.26887 35.8259Z" fill="#FFD84A"/>
<path d="M57.0969 46.8628C56.6724 46.7596 56.1605 46.573 55.7486 46.2456C55.4212 45.8376 55.2338 45.3264 55.1309 44.9025C55.1242 44.8736 55.1082 44.8476 55.085 44.8288C55.0614 44.8104 55.0329 44.7998 55.0029 44.7998H54.9967C54.9667 44.7993 54.9377 44.8095 54.9141 44.8283C54.8909 44.8471 54.8745 44.8731 54.8687 44.9025C54.7629 45.3264 54.5784 45.8376 54.251 46.2485C53.8391 46.5759 53.3272 46.7596 52.9027 46.8657C52.8732 46.8725 52.8467 46.8894 52.8283 46.913C52.8095 46.9366 52.7993 46.9665 52.7998 46.9964V47.0027C52.7998 47.0331 52.81 47.0625 52.8288 47.0861C52.8471 47.1098 52.8732 47.1266 52.9027 47.1339C53.3272 47.2366 53.8391 47.4237 54.251 47.7507C54.5784 48.162 54.7629 48.6732 54.8687 49.0971C54.8755 49.126 54.8914 49.152 54.9146 49.1709C54.9382 49.1897 54.9667 49.1993 54.9967 49.1998H55.0029C55.0329 49.2003 55.0619 49.1901 55.0855 49.1713C55.1087 49.1525 55.1251 49.1265 55.1309 49.0971C55.2367 48.6732 55.4212 48.162 55.7486 47.7507C56.1605 47.4237 56.6724 47.2395 57.0969 47.1339C57.1264 47.1271 57.1529 47.1102 57.1713 47.0866C57.1901 47.0625 57.2003 47.0331 57.1998 47.0027V46.9964C57.1993 46.966 57.1892 46.9366 57.1703 46.9125C57.152 46.8884 57.1259 46.871 57.0969 46.8628Z" fill="#45B369"/>
<path d="M59.9162 7.68794C59.5689 7.60351 59.1501 7.45081 58.813 7.18291C58.5451 6.84911 58.3918 6.43087 58.3077 6.08406C58.3021 6.06038 58.2891 6.03907 58.2701 6.02369C58.2508 6.00869 58.2275 6.00001 58.203 6.00001H58.1978C58.1733 5.99962 58.1496 6.0079 58.1303 6.02329C58.1113 6.03868 58.0979 6.05999 58.0931 6.08406C58.0066 6.43087 57.8556 6.84911 57.5878 7.18527C57.2507 7.45318 56.8319 7.60351 56.4846 7.69031C56.4605 7.69583 56.4387 7.70965 56.4237 7.72898C56.4083 7.74831 56.4 7.77278 56.4004 7.79724V7.80237C56.4004 7.82722 56.4087 7.85129 56.4241 7.87063C56.4391 7.88996 56.4605 7.90377 56.4846 7.90969C56.8319 7.99373 57.2507 8.14682 57.5878 8.41433C57.8556 8.75089 58.0066 9.16913 58.0931 9.51594C58.0986 9.53962 58.1117 9.56093 58.1307 9.57631C58.15 9.5917 58.1733 9.59959 58.1978 9.59999H58.203C58.2275 9.60038 58.2512 9.59209 58.2705 9.57671C58.2895 9.56132 58.3029 9.54001 58.3077 9.51594C58.3942 9.16913 58.5451 8.75089 58.813 8.41433C59.1501 8.14682 59.5689 7.9961 59.9162 7.90969C59.9403 7.90416 59.9621 7.89035 59.9771 7.87102C59.9925 7.85129 60.0008 7.82722 60.0004 7.80237V7.79724C60 7.77238 59.9917 7.74831 59.9763 7.72858C59.9613 7.70886 59.9399 7.69465 59.9162 7.68794Z" fill="#D0DBDC"/>
<path d="M9.49701 29.8819C9.07281 29.7887 8.55879 29.6201 8.14669 29.3208C7.82185 28.9467 7.63268 28.4789 7.52949 28.0938C7.52249 28.0672 7.50656 28.044 7.48363 28.0266C7.4607 28.0098 7.43204 28.0006 7.40211 28H7.39828C7.36835 28 7.33905 28.0093 7.31612 28.0266C7.29255 28.0434 7.27663 28.0672 7.27026 28.0938C7.16771 28.4789 6.98236 28.9467 6.65306 29.3208C6.2416 29.6161 5.72695 29.7887 5.30338 29.8819C5.27408 29.8882 5.2486 29.9033 5.23013 29.9241C5.21102 29.945 5.20083 29.971 5.2002 29.9977V30.0017C5.2002 30.029 5.21039 30.055 5.22886 30.0764C5.24797 30.0973 5.27408 30.1123 5.30338 30.1175C5.72695 30.2113 6.2416 30.3798 6.65306 30.6792C6.97854 31.0533 7.16771 31.5211 7.27026 31.9062C7.27726 31.9328 7.29319 31.956 7.31676 31.9728C7.33969 31.9896 7.36835 31.9994 7.39828 32H7.40211C7.43204 32 7.46071 31.9907 7.48427 31.9734C7.5072 31.9566 7.52313 31.9328 7.52949 31.9062C7.63268 31.5211 7.81803 31.0533 8.14669 30.6792C8.55879 30.3833 9.07281 30.2113 9.49701 30.1175C9.52567 30.1118 9.55179 30.0967 9.57026 30.0759C9.58873 30.0544 9.59956 30.029 9.6002 30.0017V29.9977C9.6002 29.971 9.59 29.9444 9.57089 29.9236C9.55242 29.9021 9.52631 29.8877 9.49701 29.8819Z" fill="#FFD84A"/>
<path d="M17.5341 45.7177C17.2642 45.6524 16.9371 45.5345 16.6748 45.3249C16.4681 45.0631 16.3477 44.7356 16.2821 44.4661C16.2776 44.4474 16.2675 44.4312 16.2529 44.419C16.2383 44.4073 16.2201 44.4008 16.201 44.4004H16.1986C16.1795 44.4004 16.1609 44.4069 16.1463 44.419C16.1313 44.4308 16.1212 44.4474 16.1171 44.4661C16.0519 44.7356 15.9339 45.0631 15.7244 45.3249C15.4625 45.5317 15.135 45.6524 14.8655 45.7177C14.8468 45.7222 14.8306 45.7327 14.8189 45.7473C14.8067 45.7619 14.8002 45.7801 14.7998 45.7988V45.8016C14.7998 45.8207 14.8063 45.8389 14.818 45.8539C14.8302 45.8685 14.8468 45.879 14.8655 45.8827C15.135 45.9483 15.4625 46.0663 15.7244 46.2758C15.9315 46.5377 16.0519 46.8652 16.1171 47.1347C16.1216 47.1534 16.1317 47.1696 16.1467 47.1813C16.1613 47.1931 16.1795 47.2 16.1986 47.2004H16.201C16.2201 47.2004 16.2383 47.1939 16.2533 47.1817C16.2679 47.17 16.278 47.1534 16.2821 47.1347C16.3477 46.8652 16.4657 46.5377 16.6748 46.2758C16.9371 46.0687 17.2642 45.9483 17.5341 45.8827C17.5524 45.8786 17.569 45.8681 17.5808 45.8535C17.5925 45.8385 17.5994 45.8207 17.5998 45.8016V45.7988C17.5998 45.7801 17.5933 45.7615 17.5812 45.7469C17.5694 45.7319 17.5528 45.7218 17.5341 45.7177Z" fill="#D0DBDC"/>
<path d="M15.3433 10.3993L8.80183 7.67239C8.80115 7.67239 8.80115 7.67176 8.80048 7.67176C8.80048 7.67113 8.7998 7.67113 8.7998 7.6705C8.7998 7.66987 8.7998 7.66924 8.7998 7.66924C8.7998 7.66861 8.7998 7.66798 8.80048 7.66798L11.0107 4.80107L11.0113 4.80043C11.012 4.80043 11.0127 4.7998 11.0127 4.7998C11.0134 4.7998 11.014 4.7998 11.014 4.80043C11.0147 4.80043 11.0154 4.80043 11.0154 4.80107L16.3985 9.03365C16.3991 9.03429 16.3998 9.03492 16.3998 9.03618C16.3998 9.03681 16.3998 9.03744 16.3991 9.03807L15.3473 10.3987C15.3473 10.3987 15.3467 10.3993 15.3453 10.3993C15.3446 10.4 15.344 10.4 15.3433 10.3993Z" fill="#D0DBDC"/>
<path d="M17.5107 7.99972L14.0006 2.36932C14.0006 2.36932 14.0006 2.36865 14 2.36865C14 2.36798 14 2.36731 14 2.36731C14.0006 2.36664 14.0006 2.36597 14.0006 2.36597C14.0012 2.3653 14.0012 2.3653 14.0018 2.3653L16.7982 0.401062C16.7982 0.401062 16.7988 0.400391 16.7994 0.400391C16.7994 0.400391 16.8 0.400391 16.8 0.401062C16.8006 0.401062 16.8012 0.401063 16.8012 0.401734C16.8018 0.401734 16.8018 0.402404 16.8018 0.403075L18.8 6.99412C18.8 6.99479 18.8 6.99547 18.8 6.99614C18.8 6.99681 18.7994 6.99748 18.7988 6.99748L17.515 8.00039C17.5144 8.00039 17.5138 8.00039 17.5138 8.00039C17.5132 8.00039 17.5131 8.00039 17.5125 8.00039C17.5125 8.00039 17.5119 8.00039 17.5113 8.00039L17.5107 7.99972Z" fill="#D0DBDC"/>
<circle cx="34" cy="26" r="20" fill="#ECF7F0"/>
<path d="M29.834 38H29.6281C29.1818 37.968 28.7453 37.8399 28.3505 37.6231C27.9582 37.4038 27.6149 37.1057 27.3477 36.7411L18.6013 24.8202C18.1158 24.1551 17.9123 23.3273 18.0349 22.5119C18.155 21.699 18.5939 20.9648 19.2511 20.4746C19.9131 19.9868 20.737 19.7824 21.5462 19.9055C22.3578 20.0262 23.0885 20.4647 23.5764 21.125L30.143 30.0773C30.1454 30.0798 30.1454 30.0798 30.1479 30.0798C30.1503 30.0823 30.1503 30.0823 30.1528 30.0823C30.1552 30.0823 30.1552 30.0823 30.1577 30.0823C30.1601 30.0798 30.1601 30.0798 30.1601 30.0773L44.6811 14.949C45.2499 14.3577 46.0321 14.0153 46.8511 14.0005C47.6701 13.9857 48.4645 14.2986 49.0555 14.8701C49.644 15.4417 49.9848 16.2275 49.9995 17.0503C50.0142 17.8756 49.7028 18.6713 49.1339 19.2626L32.0531 37.0614C31.7638 37.357 31.4205 37.5935 31.038 37.7536C30.6579 37.9162 30.2484 38 29.834 38Z" fill="#45B369"/>
</svg>
